name rise35.5848peak51.9257fall54.8793.mot
datacolumns 19
datarows 12
range 8.89663200000000 8.91496300000000
endheader
time	ground_force1_vx	ground_force1_vy	ground_force1_vz	ground_force1_px	ground_force1_py	ground_force1_pz	ground_force2_vx	ground_force2_vy	ground_force2_vz	ground_force2_px	ground_force2_py	ground_force2_pz	ground_torque1_x	ground_torque1_y	ground_torque1_z	ground_torque2_x	ground_torque2_y	ground_torque2_z	
8.89663200000000	5.33847900000000	718.71374700000001	45.22442200000000	0.18040300000000	0.00000000000000	0.11586300000000	0.00000000000000	0.00000000000000	0.00000000000000	0.00000000000000	0.00000000000000	0.00000000000000	0.00000000000000	14.71789600000000	0.00000000000000	0.00000000000000	0.00000000000000	0.00000000000000	
8.89830500000000	4.94943400000000	719.51656900000000	45.20744100000000	0.17942000000000	0.00000000000000	0.11585200000000	0.00000000000000	0.00000000000000	0.00000000000000	0.00000000000000	0.00000000000000	0.00000000000000	0.00000000000000	14.74707700000000	0.00000000000000	0.00000000000000	0.00000000000000	0.00000000000000	
8.89995700000000	4.55089100000000	720.33168999999998	45.19245000000000	0.17842100000000	0.00000000000000	0.11584100000000	0.00000000000000	0.00000000000000	0.00000000000000	0.00000000000000	0.00000000000000	0.00000000000000	0.00000000000000	14.77858100000000	0.00000000000000	0.00000000000000	0.00000000000000	0.00000000000000	
8.90163200000000	4.14302300000000	721.15760699999998	45.17925100000000	0.17740700000000	0.00000000000000	0.11583100000000	0.00000000000000	0.00000000000000	0.00000000000000	0.00000000000000	0.00000000000000	0.00000000000000	0.00000000000000	14.81237600000000	0.00000000000000	0.00000000000000	0.00000000000000	0.00000000000000	
8.90331100000000	3.72603700000000	721.99291100000005	45.16765800000000	0.17638000000000	0.00000000000000	0.11582100000000	0.00000000000000	0.00000000000000	0.00000000000000	0.00000000000000	0.00000000000000	0.00000000000000	0.00000000000000	14.84842500000000	0.00000000000000	0.00000000000000	0.00000000000000	0.00000000000000	
8.90496700000000	3.30017100000000	722.83628299999998	45.15748700000000	0.17534100000000	0.00000000000000	0.11581200000000	0.00000000000000	0.00000000000000	0.00000000000000	0.00000000000000	0.00000000000000	0.00000000000000	0.00000000000000	14.88669500000000	0.00000000000000	0.00000000000000	0.00000000000000	0.00000000000000	
8.90663900000000	2.86569400000000	723.68650400000001	45.14856800000000	0.17429100000000	0.00000000000000	0.11580300000000	0.00000000000000	0.00000000000000	0.00000000000000	0.00000000000000	0.00000000000000	0.00000000000000	0.00000000000000	14.92714900000000	0.00000000000000	0.00000000000000	0.00000000000000	0.00000000000000	
8.90829600000000	2.42290400000000	724.54245000000003	45.14073800000000	0.17323300000000	0.00000000000000	0.11579400000000	0.00000000000000	0.00000000000000	0.00000000000000	0.00000000000000	0.00000000000000	0.00000000000000	0.00000000000000	14.96975300000000	0.00000000000000	0.00000000000000	0.00000000000000	0.00000000000000	
8.90996100000000	1.97212400000000	725.40309800000000	45.13384300000000	0.17216700000000	0.00000000000000	0.11578500000000	0.00000000000000	0.00000000000000	0.00000000000000	0.00000000000000	0.00000000000000	0.00000000000000	0.00000000000000	15.01446700000000	0.00000000000000	0.00000000000000	0.00000000000000	0.00000000000000	
8.91162400000000	1.51370400000000	726.26752599999998	45.12774200000000	0.17109500000000	0.00000000000000	0.11577600000000	0.00000000000000	0.00000000000000	0.00000000000000	0.00000000000000	0.00000000000000	0.00000000000000	0.00000000000000	15.06125500000000	0.00000000000000	0.00000000000000	0.00000000000000	0.00000000000000	
8.91330900000000	1.04801500000000	727.13491499999998	45.12230400000000	0.17001800000000	0.00000000000000	0.11576800000000	0.00000000000000	0.00000000000000	0.00000000000000	0.00000000000000	0.00000000000000	0.00000000000000	0.00000000000000	15.11007700000000	0.00000000000000	0.00000000000000	0.00000000000000	0.00000000000000	
8.91496300000000	0.57544900000000	728.00454500000001	45.11740700000000	0.16893900000000	0.00000000000000	0.11575900000000	0.00000000000000	0.00000000000000	0.00000000000000	0.00000000000000	0.00000000000000	0.00000000000000	0.00000000000000	15.16089000000000	0.00000000000000	0.00000000000000	0.00000000000000	0.00000000000000	
